<svg width="34" height="34" viewBox="0 0 34 34" fill="none" xmlns="http://www.w3.org/2000/svg">
<path d="M0 34L2.44511 24.906C1.06292 22.4166 0.331908 19.6256 0.331908 16.7926C0.331908 7.5351 7.88553 0 17.1659 0C26.4463 0 34 7.5351 34 16.7926C34 26.0501 26.4463 33.5851 17.1659 33.5851C14.3805 33.5851 11.6288 32.8853 9.16277 31.5484L0 33.9958V34ZM9.62063 28.1413L10.1962 28.4849C12.3136 29.7421 14.725 30.4085 17.1659 30.4085C24.6944 30.4085 30.8197 24.2983 30.8197 16.7884C30.8197 9.27847 24.6944 3.16827 17.1659 3.16827C9.63741 3.16827 3.51212 9.27847 3.51212 16.7884C3.51212 19.2693 4.20111 21.7084 5.50767 23.8499L5.8606 24.4282L4.49523 29.5075L9.61642 28.1371L9.62063 28.1413Z" fill="#FAFAFA"/>
<path fill-rule="evenodd" clip-rule="evenodd" d="M23.3137 19.0887C22.6111 18.659 21.6957 18.1815 20.8697 18.5288C20.2354 18.7935 19.8308 19.8049 19.4178 20.3215C19.2049 20.5862 18.9538 20.6297 18.6302 20.4951C16.2459 19.5271 14.4236 17.9081 13.108 15.6726C12.8866 15.3253 12.9249 15.0519 13.1931 14.7307C13.5891 14.2532 14.0872 13.7106 14.1979 13.0682C14.3043 12.4258 14.0106 11.6748 13.7509 11.1018C13.4188 10.3726 13.0441 9.32654 12.3288 8.91417C11.6689 8.53219 10.8003 8.74488 10.2085 9.23538C9.19518 10.0775 8.70129 11.397 8.71832 12.7079C8.71832 13.0812 8.76944 13.4502 8.8546 13.8104C9.05896 14.6742 9.45065 15.4816 9.89344 16.2456C10.2255 16.8229 10.5875 17.3828 10.9749 17.9254C12.248 19.6921 13.8361 21.2244 15.6711 22.3703C16.5865 22.9433 17.5743 23.4468 18.6004 23.7897C19.7457 24.176 20.7675 24.5797 22.0108 24.3366C23.3094 24.0848 24.5867 23.2688 25.1019 21.9927C25.2551 21.615 25.3318 21.194 25.2467 20.7946C25.0721 19.9699 23.9779 19.4794 23.3222 19.0844L23.3137 19.0887Z" fill="#FAFAFA"/>
</svg>
