<svg width="38" height="38" viewBox="0 0 38 38" fill="currentColor" xmlns="http://www.w3.org/2000/svg">
<path fill-rule="evenodd" clip-rule="evenodd" d="M3.50091 12C1.33534 12 -0.315273 14.0214 0.0510981 16.138L3.08224 33.6512C3.45333 35.7949 5.3489 37.3336 7.49758 37.3336H29.8338C31.9848 37.3336 33.8475 35.7854 34.2438 33.6696L34.2435 33.6693C34.2447 33.6634 34.2453 33.6571 34.2462 33.6511L37.2747 16.1563V16.1536C37.6722 14.0221 35.9967 12 33.8299 12L3.50091 12ZM3.50091 14.6667H33.8299C34.3838 14.6667 34.7594 15.119 34.6571 15.664L34.6574 15.6643C34.6565 15.6702 34.6556 15.6762 34.6547 15.6824L31.6236 33.1849C31.4579 34.0531 30.7173 34.6667 29.8335 34.6667H7.49725C6.60938 34.6667 5.8544 34.0492 5.70719 33.198L2.67604 15.6826C2.57791 15.115 2.94484 14.6668 3.50089 14.6668L3.50091 14.6667Z" fill="#FAFAFA"/>
<path fill-rule="evenodd" clip-rule="evenodd" d="M12.3942 0.088982C12.0635 0.215473 11.7968 0.468448 11.6526 0.79196L6.3241 12.7919C6.18049 13.1152 6.17127 13.4824 6.29794 13.8125C6.42491 14.1426 6.67765 14.4089 7.00057 14.5524C7.32349 14.6961 7.69042 14.7057 8.02022 14.5786C8.34997 14.4518 8.6161 14.1988 8.75942 13.8753L14.0879 1.87532C14.2315 1.55211 14.241 1.18514 14.1141 0.854752C13.9874 0.524696 13.7347 0.258624 13.4114 0.114875C13.0891 -0.0279815 12.7233 -0.0375061 12.3942 0.088982Z" fill="#FAFAFA"/>
<path fill-rule="evenodd" clip-rule="evenodd" d="M24.9375 0.0886006C24.6083 -0.0378906 24.2423 -0.028664 23.92 0.114493C23.5971 0.258241 23.3443 0.524313 23.2173 0.85437C23.0907 1.18472 23.0999 1.55169 23.2438 1.87494L28.5723 13.8749C28.7156 14.1975 28.9811 14.4502 29.3103 14.577C29.6395 14.7041 30.0058 14.6949 30.3284 14.552C30.6513 14.4085 30.9041 14.1422 31.0311 13.8121C31.1577 13.4821 31.1485 13.1148 31.0049 12.7915L25.6764 0.791572C25.5328 0.468358 25.2672 0.215389 24.9375 0.0886006Z" fill="#FAFAFA"/>
<path fill-rule="evenodd" clip-rule="evenodd" d="M18.6492 17.3333C18.296 17.3333 17.957 17.4737 17.7072 17.7237C17.4574 17.974 17.3171 18.313 17.3171 18.6666V29.3332C17.3171 29.6868 17.4574 30.0261 17.7072 30.2761C17.957 30.5261 18.296 30.6666 18.6492 30.6666C19.0024 30.6666 19.3414 30.5261 19.5912 30.2761C19.841 30.0261 19.9813 29.6868 19.9813 29.3332V18.6666C19.9813 18.313 19.841 17.974 19.5912 17.7237C19.3414 17.4737 19.0024 17.3333 18.6492 17.3333Z" fill="#FAFAFA"/>
<path fill-rule="evenodd" clip-rule="evenodd" d="M13.3206 17.3333C12.9674 17.3333 12.6284 17.4737 12.3786 17.7237C12.1289 17.974 11.9885 18.313 11.9885 18.6666V29.3332C11.9885 29.6868 12.1289 30.0261 12.3786 30.2761C12.6284 30.5261 12.9674 30.6666 13.3206 30.6666C13.6739 30.6666 14.0129 30.5261 14.2626 30.2761C14.5124 30.0261 14.6528 29.6868 14.6528 29.3332V18.6666C14.6528 18.313 14.5124 17.974 14.2626 17.7237C14.0129 17.4737 13.6739 17.3333 13.3206 17.3333Z" fill="#FAFAFA"/>
<path fill-rule="evenodd" clip-rule="evenodd" d="M23.9775 17.3333C23.6243 17.3333 23.2853 17.4737 23.0355 17.7237C22.7857 17.974 22.6454 18.313 22.6454 18.6666V29.3332C22.6454 29.6868 22.7857 30.0261 23.0355 30.2761C23.2853 30.5261 23.6243 30.6666 23.9775 30.6666C24.3308 30.6666 24.6697 30.5261 24.9195 30.2761C25.1693 30.0261 25.3096 29.6868 25.3096 29.3332V18.6666C25.3096 18.313 25.1693 17.974 24.9195 17.7237C24.6697 17.4737 24.3308 17.3333 23.9775 17.3333Z" fill="#FAFAFA"/>
</svg>
