<svg width="36" height="27" viewBox="0 0 36 27" fill="none" xmlns="http://www.w3.org/2000/svg">
<path d="M32.1591 1H3.84063C2.27419 1 1 2.42903 1 4.18516V22.6257C1 24.3821 2.27445 25.8108 3.84063 25.8108H32.1591C33.7256 25.8108 34.9997 24.3818 34.9997 22.6257L35 4.18516C35 2.42874 33.7255 1 32.1594 1H32.1591ZM2.80864 3.95559L12.5661 11.6542L2.78878 22.6051V4.18473C2.78878 4.10616 2.79579 4.02956 2.8088 3.95521L2.80864 3.95559ZM19.5447 12.2697C18.6205 12.9989 17.3787 12.9989 16.4546 12.2697L4.71324 3.0053H31.2861L19.5447 12.2697ZM14.0514 12.8258L15.4253 13.91C16.1953 14.5175 17.0974 14.8214 17.9997 14.8214C18.9018 14.8214 19.8042 14.5175 20.5741 13.9103L21.9481 12.8261L31.7517 23.8058H4.24868L14.0514 12.8258ZM23.4334 11.6542L33.1909 3.95561C33.2039 4.02996 33.2109 4.10656 33.2109 4.18512V22.6055L23.4334 11.6542Z" fill="#FAFAFA" stroke="#FAFAFA" stroke-width="0.9"/>
</svg>
