<svg width="34" height="34" viewBox="0 0 34 34" fill="none" xmlns="http://www.w3.org/2000/svg">
<path d="M26.0038 6.07227C24.9024 6.07227 24.0088 6.9659 24.0088 8.06737C24.0088 9.16884 24.9024 10.0625 26.0038 10.0625C27.1053 10.0625 27.9989 9.16884 27.9989 8.06737C27.9989 6.9659 27.1053 6.07227 26.0038 6.07227Z" fill="#FAFAFA"/>
<path d="M17.1417 8.62891C12.5239 8.62891 8.77051 12.3864 8.77051 17.0001C8.77051 21.6138 12.528 25.3712 17.1417 25.3712C21.7554 25.3712 25.5128 21.6138 25.5128 17.0001C25.5128 12.3864 21.7554 8.62891 17.1417 8.62891ZM17.1417 22.3661C14.1823 22.3661 11.7798 19.9595 11.7798 17.0042C11.7798 14.049 14.1865 11.6424 17.1417 11.6424C20.097 11.6424 22.5035 14.049 22.5035 17.0042C22.5035 19.9595 20.097 22.3661 17.1417 22.3661Z" fill="#FAFAFA"/>
<path d="M23.7875 34H10.2124C4.58037 34 0 29.4196 0 23.7875V10.2125C0 4.58044 4.58037 0 10.2124 0H23.7875C29.4195 0 34 4.58044 34 10.2125V23.7875C34 29.4196 29.4195 34 23.7875 34ZM10.2124 3.20049C6.34687 3.20049 3.20047 6.34694 3.20047 10.2125V23.7875C3.20047 27.6531 6.34687 30.7995 10.2124 30.7995H23.7875C27.653 30.7995 30.7994 27.6531 30.7994 23.7875V10.2125C30.7994 6.34278 27.653 3.20049 23.7875 3.20049H10.2124Z" fill="#FAFAFA"/>
</svg>
