<svg width="32" height="34" viewBox="0 0 32 34" fill="none" xmlns="http://www.w3.org/2000/svg">
<path fill-rule="evenodd" clip-rule="evenodd" d="M16.0586 0.333252C21.192 0.333252 25.361 4.50219 25.361 9.63566C25.361 14.7691 21.192 18.9381 16.0586 18.9381C10.9251 18.9381 6.75616 14.7691 6.75616 9.63566C6.75616 4.50219 10.9251 0.333252 16.0586 0.333252ZM16.0586 2.65885C12.2073 2.65885 9.08177 5.7844 9.08177 9.63566C9.08177 13.4869 12.2073 16.6125 16.0586 16.6125C19.9098 16.6125 23.0354 13.4869 23.0354 9.63566C23.0354 5.7844 19.9098 2.65885 16.0586 2.65885Z" fill="#FAFAFA"/>
<path fill-rule="evenodd" clip-rule="evenodd" d="M2.49235 32.5039C2.49235 33.1458 1.97143 33.6667 1.32955 33.6667C0.68767 33.6667 0.166748 33.1458 0.166748 32.5039C0.166748 23.7331 7.28774 16.6121 16.0586 16.6121C24.8294 16.6121 31.9504 23.7331 31.9504 32.5039C31.9504 33.1458 31.4295 33.6667 30.7876 33.6667C30.1457 33.6667 29.6248 33.1458 29.6248 32.5039C29.6248 25.0168 23.5458 18.9377 16.0586 18.9377C8.57148 18.9377 2.49235 25.0167 2.49235 32.5039Z" fill="#FAFAFA"/>
</svg>
