<svg width="29" height="34" viewBox="0 0 29 34" fill="none" xmlns="http://www.w3.org/2000/svg">
<mask id="path-1-inside-1_119_98" fill="white">
<path d="M28.4613 13.7526C28.1909 13.7799 27.9166 13.7955 27.6424 13.7955C24.6485 13.7955 21.8526 12.2535 20.2109 9.69147V23.67C20.2109 29.3743 15.6857 34 10.1055 34C4.52518 34 0 29.3743 0 23.67C0 17.9656 4.52518 13.3399 10.1055 13.3399C10.315 13.3399 10.5244 13.3594 10.7301 13.371V18.4601C10.5244 18.4329 10.3188 18.3979 10.1055 18.3979C7.25627 18.3979 4.94797 20.7574 4.94797 23.67C4.94797 26.5825 7.25627 28.9421 10.1055 28.9421C12.9546 28.9421 15.4725 26.6487 15.4725 23.7361L15.5219 0H20.2871C20.7365 4.36876 24.1799 7.77966 28.4651 8.09895V13.7565"/>
</mask>
<path d="M28.4613 13.7526C28.1909 13.7799 27.9166 13.7955 27.6424 13.7955C24.6485 13.7955 21.8526 12.2535 20.2109 9.69147V23.67C20.2109 29.3743 15.6857 34 10.1055 34C4.52518 34 0 29.3743 0 23.67C0 17.9656 4.52518 13.3399 10.1055 13.3399C10.315 13.3399 10.5244 13.3594 10.7301 13.371V18.4601C10.5244 18.4329 10.3188 18.3979 10.1055 18.3979C7.25627 18.3979 4.94797 20.7574 4.94797 23.67C4.94797 26.5825 7.25627 28.9421 10.1055 28.9421C12.9546 28.9421 15.4725 26.6487 15.4725 23.7361L15.5219 0H20.2871C20.7365 4.36876 24.1799 7.77966 28.4651 8.09895V13.7565" fill="#FAFAFA"/>
<path d="M20.2109 9.69147L20.3793 9.58356L20.0109 9.00864V9.69147H20.2109ZM10.7301 13.371H10.9301V13.1821L10.7414 13.1714L10.7301 13.371ZM10.7301 18.4601L10.7038 18.6584L10.9301 18.6884V18.4601H10.7301ZM15.4725 23.7361L15.2725 23.7357V23.7361H15.4725ZM15.5219 0V-0.2H15.3223L15.3219 -0.000416859L15.5219 0ZM20.2871 0L20.486 -0.0204685L20.4675 -0.2H20.2871V0ZM28.4651 8.09895H28.6651V7.91329L28.48 7.8995L28.4651 8.09895ZM28.4412 13.5536C28.1766 13.5803 27.9091 13.5955 27.6424 13.5955V13.9955C27.9242 13.9955 28.2051 13.9795 28.4814 13.9516L28.4412 13.5536ZM27.6424 13.5955C24.7178 13.5955 21.9849 12.0893 20.3793 9.58356L20.0425 9.79937C21.7203 12.4178 24.5791 13.9955 27.6424 13.9955V13.5955ZM20.0109 9.69147V23.67H20.4109V9.69147H20.0109ZM20.0109 23.67C20.0109 29.268 15.5712 33.8 10.1055 33.8V34.2C15.8003 34.2 20.4109 29.4806 20.4109 23.67H20.0109ZM10.1055 33.8C4.63976 33.8 0.2 29.268 0.2 23.67H-0.2C-0.2 29.4806 4.4106 34.2 10.1055 34.2V33.8ZM0.2 23.67C0.2 18.0719 4.63976 13.5399 10.1055 13.5399V13.1399C4.4106 13.1399 -0.2 17.8594 -0.2 23.67H0.2ZM10.1055 13.5399C10.3075 13.5399 10.5034 13.5585 10.7188 13.5707L10.7414 13.1714C10.5455 13.1602 10.3224 13.1399 10.1055 13.1399V13.5399ZM10.5301 13.371V18.4601H10.9301V13.371H10.5301ZM10.7564 18.2619C10.5606 18.2359 10.3359 18.1979 10.1055 18.1979V18.5979C10.3016 18.5979 10.4882 18.6298 10.7038 18.6584L10.7564 18.2619ZM10.1055 18.1979C7.1417 18.1979 4.74797 20.6512 4.74797 23.67H5.14797C5.14797 20.8637 7.37085 18.5979 10.1055 18.5979V18.1979ZM4.74797 23.67C4.74797 26.6888 7.1417 29.1421 10.1055 29.1421V28.7421C7.37085 28.7421 5.14797 26.4762 5.14797 23.67H4.74797ZM10.1055 29.1421C13.0555 29.1421 15.6725 26.7684 15.6725 23.7361H15.2725C15.2725 26.5289 12.8537 28.7421 10.1055 28.7421V29.1421ZM15.6725 23.7366L15.7219 0.000416859L15.3219 -0.000416859L15.2725 23.7357L15.6725 23.7366ZM15.5219 0.2H20.2871V-0.2H15.5219V0.2ZM20.0881 0.0204685C20.5472 4.48238 24.0653 7.97167 28.4503 8.29839L28.48 7.8995C24.2946 7.58765 20.9259 4.25514 20.486 -0.0204685L20.0881 0.0204685ZM28.2651 8.09895V13.7565H28.6651V8.09895H28.2651Z" fill="#F50057" mask="url(#path-1-inside-1_119_98)"/>
</svg>
