<svg width="21" height="41" viewBox="0 0 21 41" fill="none" xmlns="http://www.w3.org/2000/svg">
<path d="M6.23173 21.8299H0.5V15.6443H6.23173H6.73173V15.1443V9.66869C6.73173 6.65305 7.61681 4.3741 9.12026 2.85028C10.6234 1.32674 12.802 0.5 15.5036 0.5C16.8209 0.5 18.1739 0.618917 19.202 0.738882C19.715 0.798738 20.1447 0.858572 20.4457 0.903355C20.4643 0.906124 20.4824 0.908836 20.5 0.911487V6.10135H17.9035C16.2678 6.10135 15.1139 6.61896 14.3789 7.47885C13.6564 8.32423 13.4027 9.42648 13.4027 10.4809V15.1443V15.6443H13.9027H20.1301L19.1941 21.8299H13.9027H13.4027V22.3299V39.558C12.9593 39.5974 12.5029 39.5938 12.0255 39.5752C11.8286 39.5675 11.6246 39.557 11.4163 39.5463C10.9766 39.5236 10.518 39.5 10.0672 39.5C9.61635 39.5 9.15775 39.5236 8.71801 39.5463C8.50978 39.557 8.30578 39.5675 8.10885 39.5752C7.63146 39.5938 7.17512 39.5974 6.73173 39.558V22.3299V21.8299H6.23173Z" fill="#FAFAFA" stroke="#F50057"/>
</svg>
